<svg width="751" height="182" viewBox="0 0 751 182" fill="none" xmlns="http://www.w3.org/2000/svg">
    <path d="M67.7669 5.04005C73.7074 -0.900394 83.3384 -0.900394 89.2789 5.04005C95.2193 10.9805 95.2193 20.6115 89.2789 26.552L37.8481 77.9828C27.9475 87.8835 27.9475 103.936 37.8481 113.837L72.0689 148.058C75.6332 151.622 81.4126 151.622 84.9769 148.058L120.5 112.534C126.44 106.594 136.071 106.594 142.012 112.534C147.952 118.475 147.952 128.106 142.012 134.046L106.489 169.569C91.0437 185.015 66.0021 185.015 50.557 169.569L16.3361 135.349C-5.44538 113.567 -5.44538 78.2524 16.3361 56.4708L67.7669 5.04005Z" fill="url(#paint0_linear_1_254)"/>
    <path d="M108.185 48.2957C114.319 42.5551 123.946 42.8739 129.686 49.0077C135.427 55.1415 135.108 64.7682 128.974 70.5088L89.4243 107.523C83.2905 113.264 73.6639 112.945 67.9233 106.811C62.1827 100.677 62.5016 91.0508 68.6353 85.3102L108.185 48.2957Z" fill="url(#paint1_linear_1_254)"/>
    <path fill-rule="evenodd" clip-rule="evenodd" d="M237.983 41.5528C260.148 41.5528 274.428 54.4021 279.361 69.6603L279.378 69.7124C279.542 70.2185 279.281 70.7644 278.784 70.9543L264.427 76.442C263.884 76.6498 263.278 76.3515 263.112 75.7939L263.096 75.7398C260.189 66.0082 251.738 57.7334 237.983 57.7334C230.971 57.7335 223.827 60.2456 218.443 65.4251C213.073 70.5908 209.382 78.4801 209.382 89.3788C209.382 100.105 212.834 108.061 218.066 113.333C223.306 118.611 230.409 121.276 237.857 121.276C246.617 121.276 252.558 118.27 256.403 114.408C259.494 111.303 261.26 107.612 262.027 104.396C262.171 103.793 261.699 103.236 261.08 103.236H233.894C233.342 103.236 232.894 102.788 232.894 102.236V88.8151C232.894 88.2629 233.342 87.8151 233.894 87.8151H277.781C278.333 87.8151 278.781 88.2628 278.781 88.8151V134.43C278.781 134.982 278.333 135.43 277.781 135.43H265.444C264.93 135.43 264.5 135.04 264.449 134.529L263.838 128.389C263.748 127.493 262.587 127.139 261.962 127.787C256.918 133.02 248.52 137.331 236.974 137.331C213.063 137.331 191.885 119.634 191.885 89.3788C191.885 59.2162 214.234 41.5529 237.983 41.5528ZM242.64 122.019C241.89 122.121 241.117 122.199 240.32 122.252C239.523 122.304 238.702 122.332 237.857 122.332C239.83 122.332 241.67 122.184 243.381 121.909L242.64 122.019ZM244.818 121.643C250.438 120.46 254.581 117.868 257.52 114.77C257.275 115.029 257.022 115.283 256.76 115.534C256.629 115.659 256.496 115.784 256.361 115.907C255.685 116.523 254.955 117.112 254.169 117.666C253.855 117.887 253.532 118.104 253.199 118.314C252.7 118.628 252.181 118.929 251.64 119.215C251.28 119.405 250.91 119.589 250.531 119.765C248.635 120.645 246.5 121.34 244.107 121.783L244.818 121.643ZM258.606 65.423C258.83 65.6769 259.047 65.935 259.26 66.1966C259.684 66.7202 260.087 67.2589 260.467 67.8109C260.658 68.0872 260.842 68.3667 261.022 68.6495C260.306 67.5197 259.5 66.4394 258.606 65.423Z" fill="white"/>
    <path fill-rule="evenodd" clip-rule="evenodd" d="M447.854 69.6902C457.515 69.6903 464.346 72.4452 468.758 76.928C473.165 81.4048 475.024 87.4666 475.024 93.8141V124.487C475.024 129.988 475.647 133.595 475.76 134.166L475.774 134.234C475.897 134.853 475.424 135.43 474.793 135.43H461.066C460.635 135.43 460.253 135.153 460.117 134.744L460.105 134.708C460.004 134.403 459.837 133.577 459.694 132.27C459.689 132.221 459.683 132.171 459.678 132.12C459.584 131.221 458.414 130.808 457.748 131.419C454.166 134.705 448.847 137.331 441.544 137.331C428.143 137.331 419.673 128.034 419.672 117.643C419.672 111.843 421.808 107.281 425.357 103.986C428.881 100.715 433.735 98.7494 439.115 97.9668L454.888 95.5584L454.897 95.5573C456.518 95.3246 457.387 94.8254 457.859 94.2969C458.324 93.7768 458.536 93.0817 458.536 92.1669C458.536 89.8171 457.745 87.7787 456.113 86.3164C454.468 84.8435 451.845 83.8441 447.98 83.844C444.366 83.844 441.638 84.9984 439.743 86.8022C437.84 88.614 436.701 91.1539 436.407 94.0483L436.401 94.1093C436.34 94.7071 435.77 95.1169 435.184 94.9837L421.708 91.9184C421.213 91.806 420.881 91.3415 420.935 90.8374L420.941 90.7868C422.141 79.534 432.247 69.6902 447.854 69.6902ZM455.835 131.664C455.811 131.683 455.787 131.701 455.762 131.72C455.956 131.57 456.145 131.419 456.329 131.265L455.835 131.664ZM426.918 131.176C426.828 131.097 426.738 131.018 426.65 130.938L426.639 130.927C426.731 131.011 426.824 131.094 426.918 131.176ZM473.999 126.487C474.006 126.711 474.014 126.931 474.022 127.147C474.013 126.912 474.005 126.672 473.998 126.427L473.999 126.487ZM443.736 109.431C443.735 109.432 443.735 109.432 443.735 109.432C443.736 109.432 443.735 109.433 443.735 109.433C441.591 109.792 439.754 110.554 438.468 111.736C437.211 112.891 436.413 114.507 436.413 116.756C436.413 118.578 437.098 120.294 438.396 121.557C439.689 122.816 441.654 123.684 444.32 123.684C448.272 123.684 451.801 122.736 454.332 120.481C456.839 118.246 458.536 114.579 458.536 108.77V108.369C458.536 107.758 457.992 107.289 457.387 107.38L443.736 109.431ZM420.746 118.541C420.754 118.691 420.764 118.84 420.775 118.988C420.764 118.844 420.755 118.7 420.748 118.555L420.746 118.541ZM435.441 117.9C435.406 117.651 435.383 117.4 435.371 117.147L435.398 117.535C435.409 117.657 435.424 117.779 435.441 117.9ZM438.65 110.246C437.072 111.338 435.936 112.887 435.528 114.973C435.637 114.416 435.798 113.898 436.005 113.417C436.108 113.177 436.223 112.945 436.349 112.723C436.916 111.722 437.703 110.901 438.65 110.246ZM420.869 115.149C420.858 115.24 420.85 115.331 420.84 115.422C420.867 115.169 420.897 114.919 420.932 114.671L420.869 115.149ZM421.824 111.112C422.231 110.002 422.746 108.967 423.356 108.008C423.051 108.488 422.77 108.986 422.514 109.504C422.386 109.762 422.264 110.026 422.149 110.294C422.034 110.562 421.926 110.834 421.824 111.112ZM442.722 108.554C441.755 108.769 440.839 109.073 440.002 109.471C440.481 109.243 440.985 109.046 441.51 108.88C441.641 108.838 441.773 108.799 441.907 108.761C442.174 108.685 442.446 108.615 442.722 108.554ZM435.47 99.7956C434.858 99.9624 434.259 100.148 433.673 100.351C433.526 100.401 433.38 100.452 433.235 100.505C433.959 100.24 434.705 100.004 435.47 99.7956ZM473.889 91.549C473.945 92.2968 473.973 93.0525 473.973 93.8141L473.968 93.2479C473.957 92.6777 473.931 92.1111 473.889 91.549ZM440.302 84.9889C439.386 85.628 438.594 86.3885 437.926 87.2458C438.148 86.9599 438.385 86.685 438.635 86.4216C439.136 85.8949 439.691 85.4151 440.302 84.9889ZM449.843 82.8703C449.71 82.8585 449.576 82.8455 449.44 82.8362L449.418 82.8352C449.561 82.8448 449.703 82.8579 449.843 82.8703ZM449.593 70.7784C449.787 70.7855 449.979 70.7948 450.17 70.8042C449.699 70.7809 449.219 70.7635 448.731 70.7547L449.593 70.7784Z" fill="white"/>
    <path d="M308.697 134.43C308.697 134.982 308.249 135.43 307.697 135.43H293.083C292.531 135.43 292.083 134.982 292.083 134.43V72.5912C292.083 72.0389 292.531 71.5912 293.083 71.5912H307.697C308.249 71.5912 308.697 72.0389 308.697 72.5912V134.43Z" fill="white"/>
    <path d="M345.397 108.833C345.672 109.771 346.99 109.799 347.304 108.874L359.74 72.2695C359.878 71.864 360.259 71.5912 360.687 71.5912H375.9C376.328 71.5912 376.709 71.864 376.847 72.2695L389.262 108.813C389.577 109.741 390.9 109.709 391.17 108.767L401.615 72.3157C401.738 71.8868 402.13 71.5912 402.576 71.5912H417.576C418.253 71.5912 418.734 72.2499 418.529 72.895L398.809 134.734C398.677 135.148 398.291 135.43 397.856 135.43H383.147C382.72 135.43 382.34 135.159 382.201 134.755L368.884 96.0638C368.574 95.1607 367.295 95.1656 366.991 96.0711L354.01 134.748C353.873 135.155 353.491 135.43 353.062 135.43H337.973C337.539 135.43 337.155 135.15 337.022 134.737L317.049 72.8985C316.841 72.2528 317.322 71.5912 318.001 71.5912H333.757C334.201 71.5912 334.592 71.8842 334.717 72.3105L345.397 108.833Z" fill="white"/>
    <path fill-rule="evenodd" clip-rule="evenodd" d="M548.328 43.4538C560.737 43.4539 571.896 47.5904 579.959 55.4776C588.028 63.3713 592.911 74.9384 592.911 89.6315C592.911 104.267 587.962 115.742 579.843 123.554C571.732 131.359 560.543 135.43 548.201 135.43H516.605C516.052 135.43 515.605 134.982 515.605 134.43V44.4538C515.605 43.9015 516.052 43.4538 516.605 43.4538H548.328ZM553.749 134.086C552.299 134.238 550.826 134.331 549.333 134.362L550.44 134.328C551.555 134.282 552.659 134.2 553.749 134.086ZM532.849 118.375C532.849 118.927 533.296 119.375 533.849 119.375H547.696C555.233 119.375 562.048 116.947 566.974 112.074C571.894 107.208 575.035 99.7993 575.035 89.6315C575.035 79.3305 571.92 71.8256 567.03 66.898C562.135 61.966 555.355 59.5086 547.822 59.5086H533.849C533.296 59.5086 532.849 59.9563 532.849 60.5086V118.375ZM558.68 118.542C558.68 118.542 558.681 118.542 558.681 118.542C561.646 117.437 564.362 115.842 566.722 113.752C566.047 114.349 565.344 114.906 564.615 115.422C564.432 115.552 564.247 115.678 564.061 115.802C562.575 116.794 560.985 117.625 559.311 118.297C559.102 118.381 558.892 118.462 558.68 118.541C558.68 118.541 558.68 118.542 558.68 118.542ZM571.196 108.512C571.067 108.712 570.937 108.91 570.804 109.105L571.196 108.512C571.324 108.311 571.451 108.108 571.575 107.903L571.196 108.512ZM575.351 97.7636C575.245 98.319 575.127 98.864 574.998 99.3985L575.183 98.5898C575.242 98.3171 575.298 98.0416 575.351 97.7636ZM561.255 61.4464C561.255 61.446 561.255 61.4455 561.255 61.4453C560.454 61.0446 559.63 60.6855 558.786 60.3657C559.208 60.5256 559.625 60.6952 560.037 60.8753C560.448 61.0554 560.854 61.2462 561.254 61.4465C561.255 61.4466 561.255 61.4466 561.255 61.4464Z" fill="white"/>
    <path d="M661.303 58.7623C661.303 59.3146 660.855 59.7623 660.303 59.7623H622.177C621.625 59.7623 621.177 60.2101 621.177 60.7623V80.4778C621.177 81.0301 621.625 81.4778 622.177 81.4778H656.517C657.069 81.4778 657.517 81.9255 657.517 82.4778V96.4057C657.517 96.958 657.069 97.4057 656.517 97.4057H622.177C621.625 97.4057 621.177 97.8534 621.177 98.4057V118.121C621.177 118.673 621.625 119.121 622.177 119.121H660.303C660.855 119.121 661.303 119.569 661.303 120.121V134.43C661.303 134.982 660.855 135.43 660.303 135.43H604.932C604.38 135.43 603.932 134.982 603.932 134.43V44.4538C603.932 43.9015 604.38 43.4538 604.932 43.4538H660.303C660.855 43.4538 661.303 43.9015 661.303 44.4538V58.7623Z" fill="white"/>
    <path d="M709.459 74.1623C709.851 74.7824 710.755 74.7837 711.149 74.1646L730.375 43.9174C730.559 43.6287 730.877 43.4538 731.219 43.4538H749.139C749.936 43.4538 750.413 44.341 749.973 45.0057L720.887 88.9532C720.665 89.2876 720.665 89.7219 720.886 90.0564L749.846 133.878C750.286 134.543 749.809 135.43 749.012 135.43H730.715C730.372 135.43 730.054 135.254 729.87 134.965L710.756 104.826C710.364 104.209 709.464 104.207 709.07 104.822L689.718 134.97C689.534 135.256 689.217 135.43 688.877 135.43H670.958C670.16 135.43 669.683 134.541 670.125 133.876L699.333 89.9287C699.555 89.5942 699.556 89.159 699.335 88.8239L670.376 45.0052C669.937 44.3404 670.414 43.4538 671.211 43.4538H689.508C689.851 43.4538 690.17 43.6297 690.353 43.9197L709.459 74.1623Z" fill="white"/>
    <path fill-rule="evenodd" clip-rule="evenodd" d="M300.327 40.2852C306.207 40.2853 310.968 45.0677 310.968 50.9742C310.968 56.899 306.189 61.5364 300.327 61.5365C294.582 61.5365 289.812 56.89 289.812 50.9742C289.812 45.0767 294.564 40.2852 300.327 40.2852ZM309.806 52.4307C309.853 52.1154 309.888 51.7948 309.904 51.4693L309.866 51.9583C309.85 52.1171 309.829 52.2745 309.806 52.4307ZM290.909 51.9273C290.91 51.9325 290.91 51.9377 290.91 51.9428C290.895 51.7862 290.884 51.6283 290.876 51.4693L290.909 51.9273ZM309.917 50.9742L309.905 50.4936C309.905 50.4891 309.904 50.4846 309.904 50.4802C309.912 50.6438 309.917 50.8086 309.917 50.9742Z" fill="white"/>
    <defs>
        <linearGradient id="paint0_linear_1_254" x1="70.917" y1="83.7405" x2="125.678" y2="42.1626" gradientUnits="userSpaceOnUse">
            <stop stop-color="white"/>
            <stop offset="1" stop-color="white" stop-opacity="0.3"/>
        </linearGradient>
        <linearGradient id="paint1_linear_1_254" x1="131.763" y1="47.233" x2="67.3677" y2="108.586" gradientUnits="userSpaceOnUse">
            <stop stop-color="white" stop-opacity="0.3"/>
            <stop offset="0.6" stop-color="white"/>
        </linearGradient>
    </defs>
</svg>
